<mxfile host="app.diagrams.net" modified="2023-02-28T17:31:54.499Z" agent="5.0 (Windows NT 10.0; Win64; x64) AppleWebKit/537.36 (KHTML, like Gecko) Chrome/110.0.0.0 Safari/537.36" etag="eMgShQ8O8wIrarIHwFPd" version="20.8.23" type="github">
  <diagram name="Page-1" id="m1XdTqFr4J6g4T0EVEnm">
    <mxGraphModel dx="2284" dy="1839" grid="1" gridSize="10" guides="1" tooltips="1" connect="1" arrows="1" fold="1" page="1" pageScale="1" pageWidth="850" pageHeight="1100" math="0" shadow="0">
      <root>
        <mxCell id="0" />
        <mxCell id="1" parent="0" />
        <mxCell id="gepWx0UQFkuObHe4FOYn-3" value="nome" style="ellipse;whiteSpace=wrap;html=1;align=center;" vertex="1" parent="1">
          <mxGeometry x="-95" y="110" width="100" height="40" as="geometry" />
        </mxCell>
        <mxCell id="gepWx0UQFkuObHe4FOYn-4" value="email" style="ellipse;whiteSpace=wrap;html=1;align=center;" vertex="1" parent="1">
          <mxGeometry x="165" y="30" width="100" height="40" as="geometry" />
        </mxCell>
        <mxCell id="gepWx0UQFkuObHe4FOYn-5" value="senha" style="ellipse;whiteSpace=wrap;html=1;align=center;" vertex="1" parent="1">
          <mxGeometry x="245" y="110" width="100" height="40" as="geometry" />
        </mxCell>
        <mxCell id="gepWx0UQFkuObHe4FOYn-6" value="Biografia" style="ellipse;whiteSpace=wrap;html=1;align=center;" vertex="1" parent="1">
          <mxGeometry x="-360" y="250" width="100" height="40" as="geometry" />
        </mxCell>
        <mxCell id="gepWx0UQFkuObHe4FOYn-7" value="cpf" style="ellipse;whiteSpace=wrap;html=1;align=center;fontStyle=4;" vertex="1" parent="1">
          <mxGeometry x="-60" y="40" width="100" height="40" as="geometry" />
        </mxCell>
        <mxCell id="gepWx0UQFkuObHe4FOYn-36" style="edgeStyle=orthogonalEdgeStyle;rounded=0;orthogonalLoop=1;jettySize=auto;html=1;entryX=0.5;entryY=0;entryDx=0;entryDy=0;endArrow=none;endFill=0;" edge="1" parent="1" source="gepWx0UQFkuObHe4FOYn-8" target="gepWx0UQFkuObHe4FOYn-13">
          <mxGeometry relative="1" as="geometry" />
        </mxCell>
        <mxCell id="gepWx0UQFkuObHe4FOYn-39" style="edgeStyle=orthogonalEdgeStyle;rounded=0;orthogonalLoop=1;jettySize=auto;html=1;endArrow=none;endFill=0;" edge="1" parent="1" source="gepWx0UQFkuObHe4FOYn-8" target="gepWx0UQFkuObHe4FOYn-3">
          <mxGeometry relative="1" as="geometry" />
        </mxCell>
        <mxCell id="gepWx0UQFkuObHe4FOYn-41" style="edgeStyle=orthogonalEdgeStyle;rounded=0;orthogonalLoop=1;jettySize=auto;html=1;endArrow=none;endFill=0;" edge="1" parent="1" source="gepWx0UQFkuObHe4FOYn-8" target="gepWx0UQFkuObHe4FOYn-4">
          <mxGeometry relative="1" as="geometry">
            <Array as="points">
              <mxPoint x="165" y="40" />
            </Array>
          </mxGeometry>
        </mxCell>
        <mxCell id="gepWx0UQFkuObHe4FOYn-42" style="edgeStyle=orthogonalEdgeStyle;rounded=0;orthogonalLoop=1;jettySize=auto;html=1;endArrow=none;endFill=0;" edge="1" parent="1" source="gepWx0UQFkuObHe4FOYn-8" target="gepWx0UQFkuObHe4FOYn-5">
          <mxGeometry relative="1" as="geometry">
            <Array as="points">
              <mxPoint x="225" y="130" />
              <mxPoint x="225" y="130" />
            </Array>
          </mxGeometry>
        </mxCell>
        <mxCell id="gepWx0UQFkuObHe4FOYn-44" style="edgeStyle=orthogonalEdgeStyle;rounded=0;orthogonalLoop=1;jettySize=auto;html=1;endArrow=none;endFill=0;" edge="1" parent="1" source="gepWx0UQFkuObHe4FOYn-8">
          <mxGeometry relative="1" as="geometry">
            <mxPoint x="185" y="130" as="targetPoint" />
          </mxGeometry>
        </mxCell>
        <mxCell id="gepWx0UQFkuObHe4FOYn-8" value="Usuários" style="whiteSpace=wrap;html=1;align=center;" vertex="1" parent="1">
          <mxGeometry x="70" y="110" width="100" height="40" as="geometry" />
        </mxCell>
        <mxCell id="gepWx0UQFkuObHe4FOYn-46" style="edgeStyle=orthogonalEdgeStyle;rounded=0;orthogonalLoop=1;jettySize=auto;html=1;entryX=1;entryY=0.5;entryDx=0;entryDy=0;endArrow=none;endFill=0;" edge="1" parent="1" source="gepWx0UQFkuObHe4FOYn-9" target="gepWx0UQFkuObHe4FOYn-6">
          <mxGeometry relative="1" as="geometry" />
        </mxCell>
        <mxCell id="gepWx0UQFkuObHe4FOYn-47" style="edgeStyle=orthogonalEdgeStyle;rounded=0;orthogonalLoop=1;jettySize=auto;html=1;entryX=1;entryY=0.5;entryDx=0;entryDy=0;endArrow=none;endFill=0;" edge="1" parent="1" source="gepWx0UQFkuObHe4FOYn-9" target="gepWx0UQFkuObHe4FOYn-14">
          <mxGeometry relative="1" as="geometry" />
        </mxCell>
        <mxCell id="gepWx0UQFkuObHe4FOYn-127" style="edgeStyle=orthogonalEdgeStyle;rounded=0;orthogonalLoop=1;jettySize=auto;html=1;entryX=1;entryY=0.5;entryDx=0;entryDy=0;endArrow=none;endFill=0;" edge="1" parent="1" source="gepWx0UQFkuObHe4FOYn-9" target="gepWx0UQFkuObHe4FOYn-111">
          <mxGeometry relative="1" as="geometry">
            <Array as="points">
              <mxPoint x="-200" y="460" />
            </Array>
          </mxGeometry>
        </mxCell>
        <mxCell id="gepWx0UQFkuObHe4FOYn-9" value="Artista" style="whiteSpace=wrap;html=1;align=center;" vertex="1" parent="1">
          <mxGeometry x="-220" y="320" width="100" height="40" as="geometry" />
        </mxCell>
        <mxCell id="gepWx0UQFkuObHe4FOYn-93" style="edgeStyle=orthogonalEdgeStyle;rounded=0;orthogonalLoop=1;jettySize=auto;html=1;entryX=0.5;entryY=0;entryDx=0;entryDy=0;endArrow=none;endFill=0;" edge="1" parent="1" source="gepWx0UQFkuObHe4FOYn-11" target="gepWx0UQFkuObHe4FOYn-64">
          <mxGeometry relative="1" as="geometry">
            <Array as="points">
              <mxPoint x="420" y="420" />
              <mxPoint x="240" y="420" />
            </Array>
          </mxGeometry>
        </mxCell>
        <mxCell id="gepWx0UQFkuObHe4FOYn-98" style="edgeStyle=orthogonalEdgeStyle;rounded=0;orthogonalLoop=1;jettySize=auto;html=1;entryX=0.5;entryY=0;entryDx=0;entryDy=0;endArrow=none;endFill=0;" edge="1" parent="1" source="gepWx0UQFkuObHe4FOYn-11" target="gepWx0UQFkuObHe4FOYn-69">
          <mxGeometry relative="1" as="geometry">
            <Array as="points">
              <mxPoint x="480" y="500" />
            </Array>
          </mxGeometry>
        </mxCell>
        <mxCell id="gepWx0UQFkuObHe4FOYn-152" style="edgeStyle=orthogonalEdgeStyle;rounded=0;orthogonalLoop=1;jettySize=auto;html=1;entryX=0.5;entryY=1;entryDx=0;entryDy=0;endArrow=none;endFill=0;" edge="1" parent="1" source="gepWx0UQFkuObHe4FOYn-11" target="gepWx0UQFkuObHe4FOYn-151">
          <mxGeometry relative="1" as="geometry">
            <Array as="points">
              <mxPoint x="510" y="330" />
            </Array>
          </mxGeometry>
        </mxCell>
        <mxCell id="gepWx0UQFkuObHe4FOYn-11" value="Admirador" style="whiteSpace=wrap;html=1;align=center;" vertex="1" parent="1">
          <mxGeometry x="390" y="320" width="100" height="40" as="geometry" />
        </mxCell>
        <mxCell id="gepWx0UQFkuObHe4FOYn-37" style="edgeStyle=orthogonalEdgeStyle;rounded=0;orthogonalLoop=1;jettySize=auto;html=1;entryX=0.5;entryY=0;entryDx=0;entryDy=0;endArrow=none;endFill=0;" edge="1" parent="1" source="gepWx0UQFkuObHe4FOYn-13" target="gepWx0UQFkuObHe4FOYn-9">
          <mxGeometry relative="1" as="geometry" />
        </mxCell>
        <mxCell id="gepWx0UQFkuObHe4FOYn-38" style="edgeStyle=orthogonalEdgeStyle;rounded=0;orthogonalLoop=1;jettySize=auto;html=1;endArrow=none;endFill=0;" edge="1" parent="1" source="gepWx0UQFkuObHe4FOYn-13" target="gepWx0UQFkuObHe4FOYn-11">
          <mxGeometry relative="1" as="geometry" />
        </mxCell>
        <mxCell id="gepWx0UQFkuObHe4FOYn-103" value="&lt;p style=&quot;line-height: 160%;&quot;&gt;{sobreponivel,total}&lt;/p&gt;" style="edgeLabel;html=1;align=center;verticalAlign=middle;resizable=0;points=[];" vertex="1" connectable="0" parent="gepWx0UQFkuObHe4FOYn-38">
          <mxGeometry x="-0.784" y="4" relative="1" as="geometry">
            <mxPoint x="14" y="4" as="offset" />
          </mxGeometry>
        </mxCell>
        <mxCell id="gepWx0UQFkuObHe4FOYn-13" value="Tipo" style="shape=hexagon;perimeter=hexagonPerimeter2;whiteSpace=wrap;html=1;fixedSize=1;" vertex="1" parent="1">
          <mxGeometry x="75" y="190" width="90" height="40" as="geometry" />
        </mxCell>
        <mxCell id="gepWx0UQFkuObHe4FOYn-14" value="telefone" style="ellipse;whiteSpace=wrap;html=1;align=center;" vertex="1" parent="1">
          <mxGeometry x="-360" y="300" width="100" height="40" as="geometry" />
        </mxCell>
        <mxCell id="gepWx0UQFkuObHe4FOYn-21" value="nome" style="ellipse;whiteSpace=wrap;html=1;align=center;" vertex="1" parent="1">
          <mxGeometry x="-295" y="770" width="100" height="40" as="geometry" />
        </mxCell>
        <mxCell id="gepWx0UQFkuObHe4FOYn-23" value="conceito" style="ellipse;whiteSpace=wrap;html=1;align=center;" vertex="1" parent="1">
          <mxGeometry x="-225" y="810" width="100" height="40" as="geometry" />
        </mxCell>
        <mxCell id="gepWx0UQFkuObHe4FOYn-24" value="Inspiraçao" style="ellipse;whiteSpace=wrap;html=1;align=center;" vertex="1" parent="1">
          <mxGeometry x="-145" y="775" width="100" height="40" as="geometry" />
        </mxCell>
        <mxCell id="gepWx0UQFkuObHe4FOYn-25" value="duraçao" style="ellipse;whiteSpace=wrap;html=1;align=center;" vertex="1" parent="1">
          <mxGeometry x="-75" y="735" width="100" height="40" as="geometry" />
        </mxCell>
        <mxCell id="gepWx0UQFkuObHe4FOYn-26" value="id_exp" style="ellipse;whiteSpace=wrap;html=1;align=center;fontStyle=4;" vertex="1" parent="1">
          <mxGeometry x="-395" y="735" width="100" height="40" as="geometry" />
        </mxCell>
        <mxCell id="gepWx0UQFkuObHe4FOYn-28" value="nome" style="ellipse;whiteSpace=wrap;html=1;align=center;" vertex="1" parent="1">
          <mxGeometry x="300" y="770" width="100" height="40" as="geometry" />
        </mxCell>
        <mxCell id="gepWx0UQFkuObHe4FOYn-29" value="conceito" style="ellipse;whiteSpace=wrap;html=1;align=center;" vertex="1" parent="1">
          <mxGeometry x="390" y="805" width="100" height="40" as="geometry" />
        </mxCell>
        <mxCell id="gepWx0UQFkuObHe4FOYn-30" value="data_exp" style="ellipse;whiteSpace=wrap;html=1;align=center;" vertex="1" parent="1">
          <mxGeometry x="500" y="805" width="100" height="40" as="geometry" />
        </mxCell>
        <mxCell id="gepWx0UQFkuObHe4FOYn-31" value="valor" style="ellipse;whiteSpace=wrap;html=1;align=center;" vertex="1" parent="1">
          <mxGeometry x="600" y="775" width="100" height="40" as="geometry" />
        </mxCell>
        <mxCell id="gepWx0UQFkuObHe4FOYn-123" style="edgeStyle=orthogonalEdgeStyle;rounded=0;orthogonalLoop=1;jettySize=auto;html=1;entryX=0.5;entryY=1;entryDx=0;entryDy=0;endArrow=none;endFill=0;" edge="1" parent="1" source="gepWx0UQFkuObHe4FOYn-32" target="gepWx0UQFkuObHe4FOYn-34">
          <mxGeometry relative="1" as="geometry">
            <Array as="points">
              <mxPoint x="550" y="480" />
            </Array>
          </mxGeometry>
        </mxCell>
        <mxCell id="gepWx0UQFkuObHe4FOYn-124" style="edgeStyle=orthogonalEdgeStyle;rounded=0;orthogonalLoop=1;jettySize=auto;html=1;entryX=0.5;entryY=1;entryDx=0;entryDy=0;endArrow=none;endFill=0;" edge="1" parent="1" source="gepWx0UQFkuObHe4FOYn-32" target="gepWx0UQFkuObHe4FOYn-33">
          <mxGeometry relative="1" as="geometry" />
        </mxCell>
        <mxCell id="gepWx0UQFkuObHe4FOYn-32" value="classificação" style="whiteSpace=wrap;html=1;align=center;" vertex="1" parent="1">
          <mxGeometry x="600" y="460" width="100" height="40" as="geometry" />
        </mxCell>
        <mxCell id="gepWx0UQFkuObHe4FOYn-33" value="classificação" style="ellipse;whiteSpace=wrap;html=1;align=center;" vertex="1" parent="1">
          <mxGeometry x="600" y="350" width="100" height="40" as="geometry" />
        </mxCell>
        <mxCell id="gepWx0UQFkuObHe4FOYn-34" value="id_clas" style="ellipse;whiteSpace=wrap;html=1;align=center;fontStyle=4;" vertex="1" parent="1">
          <mxGeometry x="500" y="420" width="100" height="40" as="geometry" />
        </mxCell>
        <mxCell id="gepWx0UQFkuObHe4FOYn-35" value="id_obra" style="ellipse;whiteSpace=wrap;html=1;align=center;fontStyle=4;" vertex="1" parent="1">
          <mxGeometry x="220" y="735" width="100" height="40" as="geometry" />
        </mxCell>
        <mxCell id="gepWx0UQFkuObHe4FOYn-91" style="edgeStyle=orthogonalEdgeStyle;rounded=0;orthogonalLoop=1;jettySize=auto;html=1;entryX=0.5;entryY=1;entryDx=0;entryDy=0;endArrow=none;endFill=0;" edge="1" parent="1" target="gepWx0UQFkuObHe4FOYn-9">
          <mxGeometry relative="1" as="geometry">
            <mxPoint x="-169.9411764705883" y="470.02941176470586" as="sourcePoint" />
            <Array as="points">
              <mxPoint x="-170" y="390" />
              <mxPoint x="-170" y="390" />
            </Array>
          </mxGeometry>
        </mxCell>
        <mxCell id="gepWx0UQFkuObHe4FOYn-92" style="edgeStyle=orthogonalEdgeStyle;rounded=0;orthogonalLoop=1;jettySize=auto;html=1;endArrow=none;endFill=0;entryX=0.5;entryY=0;entryDx=0;entryDy=0;" edge="1" parent="1" target="gepWx0UQFkuObHe4FOYn-119">
          <mxGeometry relative="1" as="geometry">
            <mxPoint x="-170" y="529.9999999999998" as="sourcePoint" />
            <mxPoint x="-170" y="650" as="targetPoint" />
          </mxGeometry>
        </mxCell>
        <mxCell id="gepWx0UQFkuObHe4FOYn-94" style="edgeStyle=orthogonalEdgeStyle;rounded=0;orthogonalLoop=1;jettySize=auto;html=1;entryX=0.75;entryY=0;entryDx=0;entryDy=0;endArrow=none;endFill=0;" edge="1" parent="1" source="gepWx0UQFkuObHe4FOYn-64" target="gepWx0UQFkuObHe4FOYn-119">
          <mxGeometry relative="1" as="geometry">
            <mxPoint x="-145" y="654.9999999999998" as="targetPoint" />
            <Array as="points">
              <mxPoint x="240" y="580" />
              <mxPoint x="-145" y="580" />
            </Array>
          </mxGeometry>
        </mxCell>
        <mxCell id="gepWx0UQFkuObHe4FOYn-64" value="visita" style="shape=rhombus;perimeter=rhombusPerimeter;whiteSpace=wrap;html=1;align=center;" vertex="1" parent="1">
          <mxGeometry x="180" y="480" width="120" height="60" as="geometry" />
        </mxCell>
        <mxCell id="gepWx0UQFkuObHe4FOYn-96" style="edgeStyle=orthogonalEdgeStyle;rounded=0;orthogonalLoop=1;jettySize=auto;html=1;endArrow=none;endFill=0;entryX=0;entryY=0.5;entryDx=0;entryDy=0;exitX=1;exitY=0.5;exitDx=0;exitDy=0;" edge="1" parent="1" source="gepWx0UQFkuObHe4FOYn-122" target="gepWx0UQFkuObHe4FOYn-120">
          <mxGeometry relative="1" as="geometry">
            <mxPoint x="200" y="674.9999999999998" as="sourcePoint" />
            <mxPoint x="440" y="674.9999999999998" as="targetPoint" />
            <Array as="points">
              <mxPoint x="430" y="675" />
            </Array>
          </mxGeometry>
        </mxCell>
        <mxCell id="gepWx0UQFkuObHe4FOYn-97" style="edgeStyle=orthogonalEdgeStyle;rounded=0;orthogonalLoop=1;jettySize=auto;html=1;endArrow=none;endFill=0;entryX=1;entryY=0.5;entryDx=0;entryDy=0;exitX=0;exitY=0.5;exitDx=0;exitDy=0;" edge="1" parent="1" source="gepWx0UQFkuObHe4FOYn-122" target="gepWx0UQFkuObHe4FOYn-119">
          <mxGeometry relative="1" as="geometry">
            <mxPoint x="80" y="674.9999999999998" as="sourcePoint" />
            <mxPoint x="-120" y="675.0000000000002" as="targetPoint" />
            <Array as="points" />
          </mxGeometry>
        </mxCell>
        <mxCell id="gepWx0UQFkuObHe4FOYn-84" style="edgeStyle=orthogonalEdgeStyle;rounded=0;orthogonalLoop=1;jettySize=auto;html=1;exitX=0.5;exitY=1;exitDx=0;exitDy=0;endArrow=none;endFill=0;entryX=1;entryY=0.5;entryDx=0;entryDy=0;" edge="1" parent="1" source="gepWx0UQFkuObHe4FOYn-66" target="gepWx0UQFkuObHe4FOYn-120">
          <mxGeometry relative="1" as="geometry">
            <mxPoint x="540" y="679.9411764705881" as="targetPoint" />
            <Array as="points">
              <mxPoint x="650" y="680" />
            </Array>
          </mxGeometry>
        </mxCell>
        <mxCell id="gepWx0UQFkuObHe4FOYn-85" style="edgeStyle=orthogonalEdgeStyle;rounded=0;orthogonalLoop=1;jettySize=auto;html=1;endArrow=none;endFill=0;" edge="1" parent="1" source="gepWx0UQFkuObHe4FOYn-66" target="gepWx0UQFkuObHe4FOYn-32">
          <mxGeometry relative="1" as="geometry" />
        </mxCell>
        <mxCell id="gepWx0UQFkuObHe4FOYn-66" value="tem" style="shape=rhombus;perimeter=rhombusPerimeter;whiteSpace=wrap;html=1;align=center;" vertex="1" parent="1">
          <mxGeometry x="590" y="560" width="120" height="60" as="geometry" />
        </mxCell>
        <mxCell id="gepWx0UQFkuObHe4FOYn-89" style="edgeStyle=orthogonalEdgeStyle;rounded=0;orthogonalLoop=1;jettySize=auto;html=1;endArrow=none;endFill=0;" edge="1" parent="1" source="gepWx0UQFkuObHe4FOYn-67" target="gepWx0UQFkuObHe4FOYn-11">
          <mxGeometry relative="1" as="geometry" />
        </mxCell>
        <mxCell id="gepWx0UQFkuObHe4FOYn-90" style="edgeStyle=orthogonalEdgeStyle;rounded=0;orthogonalLoop=1;jettySize=auto;html=1;entryX=1;entryY=0.5;entryDx=0;entryDy=0;endArrow=none;endFill=0;" edge="1" parent="1" source="gepWx0UQFkuObHe4FOYn-67" target="gepWx0UQFkuObHe4FOYn-9">
          <mxGeometry relative="1" as="geometry" />
        </mxCell>
        <mxCell id="gepWx0UQFkuObHe4FOYn-67" value="favorita" style="shape=rhombus;perimeter=rhombusPerimeter;whiteSpace=wrap;html=1;align=center;" vertex="1" parent="1">
          <mxGeometry x="60" y="310" width="120" height="60" as="geometry" />
        </mxCell>
        <mxCell id="gepWx0UQFkuObHe4FOYn-99" style="edgeStyle=orthogonalEdgeStyle;rounded=0;orthogonalLoop=1;jettySize=auto;html=1;endArrow=none;endFill=0;entryX=0.993;entryY=1.028;entryDx=0;entryDy=0;entryPerimeter=0;" edge="1" parent="1" source="gepWx0UQFkuObHe4FOYn-69" target="gepWx0UQFkuObHe4FOYn-142">
          <mxGeometry relative="1" as="geometry">
            <mxPoint x="480.0588235294117" y="654.9999999999998" as="targetPoint" />
            <Array as="points">
              <mxPoint x="480" y="680" />
            </Array>
          </mxGeometry>
        </mxCell>
        <mxCell id="gepWx0UQFkuObHe4FOYn-69" value="compra" style="shape=rhombus;perimeter=rhombusPerimeter;whiteSpace=wrap;html=1;align=center;" vertex="1" parent="1">
          <mxGeometry x="420" y="500" width="120" height="60" as="geometry" />
        </mxCell>
        <mxCell id="gepWx0UQFkuObHe4FOYn-70" value="" style="endArrow=none;html=1;rounded=0;exitX=1;exitY=0;exitDx=0;exitDy=0;entryX=0;entryY=1;entryDx=0;entryDy=0;" edge="1" parent="1" source="gepWx0UQFkuObHe4FOYn-35" target="gepWx0UQFkuObHe4FOYn-120">
          <mxGeometry relative="1" as="geometry">
            <mxPoint x="370" y="735" as="sourcePoint" />
            <mxPoint x="430" y="695" as="targetPoint" />
          </mxGeometry>
        </mxCell>
        <mxCell id="gepWx0UQFkuObHe4FOYn-71" value="" style="endArrow=none;html=1;rounded=0;entryX=0.25;entryY=1;entryDx=0;entryDy=0;exitX=0.71;exitY=0;exitDx=0;exitDy=0;exitPerimeter=0;" edge="1" parent="1" source="gepWx0UQFkuObHe4FOYn-28" target="gepWx0UQFkuObHe4FOYn-120">
          <mxGeometry relative="1" as="geometry">
            <mxPoint x="350" y="745" as="sourcePoint" />
            <mxPoint x="458" y="694.9999999999998" as="targetPoint" />
          </mxGeometry>
        </mxCell>
        <mxCell id="gepWx0UQFkuObHe4FOYn-72" value="" style="endArrow=none;html=1;rounded=0;entryX=0.5;entryY=1;entryDx=0;entryDy=0;exitX=0.5;exitY=0;exitDx=0;exitDy=0;" edge="1" parent="1" source="gepWx0UQFkuObHe4FOYn-29" target="gepWx0UQFkuObHe4FOYn-120">
          <mxGeometry relative="1" as="geometry">
            <mxPoint x="380" y="725" as="sourcePoint" />
            <mxPoint x="490" y="694.9999999999998" as="targetPoint" />
          </mxGeometry>
        </mxCell>
        <mxCell id="gepWx0UQFkuObHe4FOYn-73" value="" style="endArrow=none;html=1;rounded=0;exitX=0.671;exitY=1.047;exitDx=0;exitDy=0;entryX=0.5;entryY=0;entryDx=0;entryDy=0;exitPerimeter=0;" edge="1" parent="1" source="gepWx0UQFkuObHe4FOYn-120" target="gepWx0UQFkuObHe4FOYn-30">
          <mxGeometry relative="1" as="geometry">
            <mxPoint x="515" y="694.9999999999998" as="sourcePoint" />
            <mxPoint x="600" y="775" as="targetPoint" />
          </mxGeometry>
        </mxCell>
        <mxCell id="gepWx0UQFkuObHe4FOYn-74" value="" style="endArrow=none;html=1;rounded=0;entryX=0.5;entryY=0;entryDx=0;entryDy=0;exitX=0.75;exitY=1;exitDx=0;exitDy=0;" edge="1" parent="1" source="gepWx0UQFkuObHe4FOYn-120" target="gepWx0UQFkuObHe4FOYn-31">
          <mxGeometry relative="1" as="geometry">
            <mxPoint x="525.4000000000001" y="695.7599999999998" as="sourcePoint" />
            <mxPoint x="700" y="704" as="targetPoint" />
          </mxGeometry>
        </mxCell>
        <mxCell id="gepWx0UQFkuObHe4FOYn-75" value="" style="endArrow=none;html=1;rounded=0;entryX=0;entryY=1;entryDx=0;entryDy=0;exitX=0.5;exitY=0;exitDx=0;exitDy=0;" edge="1" parent="1" source="gepWx0UQFkuObHe4FOYn-26" target="gepWx0UQFkuObHe4FOYn-119">
          <mxGeometry relative="1" as="geometry">
            <mxPoint x="-225" y="625" as="sourcePoint" />
            <mxPoint x="-220" y="694.9999999999998" as="targetPoint" />
          </mxGeometry>
        </mxCell>
        <mxCell id="gepWx0UQFkuObHe4FOYn-76" value="" style="endArrow=none;html=1;rounded=0;entryX=0.25;entryY=1;entryDx=0;entryDy=0;exitX=0.5;exitY=0;exitDx=0;exitDy=0;" edge="1" parent="1" source="gepWx0UQFkuObHe4FOYn-21" target="gepWx0UQFkuObHe4FOYn-119">
          <mxGeometry relative="1" as="geometry">
            <mxPoint x="-345" y="710" as="sourcePoint" />
            <mxPoint x="-195" y="694.9999999999998" as="targetPoint" />
          </mxGeometry>
        </mxCell>
        <mxCell id="gepWx0UQFkuObHe4FOYn-77" value="" style="endArrow=none;html=1;rounded=0;entryX=0.5;entryY=1;entryDx=0;entryDy=0;exitX=0.5;exitY=0;exitDx=0;exitDy=0;" edge="1" parent="1" source="gepWx0UQFkuObHe4FOYn-23" target="gepWx0UQFkuObHe4FOYn-119">
          <mxGeometry relative="1" as="geometry">
            <mxPoint x="-335" y="725" as="sourcePoint" />
            <mxPoint x="-170" y="694.9999999999998" as="targetPoint" />
          </mxGeometry>
        </mxCell>
        <mxCell id="gepWx0UQFkuObHe4FOYn-78" value="" style="endArrow=none;html=1;rounded=0;exitX=0.75;exitY=1;exitDx=0;exitDy=0;" edge="1" parent="1" source="gepWx0UQFkuObHe4FOYn-119" target="gepWx0UQFkuObHe4FOYn-24">
          <mxGeometry relative="1" as="geometry">
            <mxPoint x="-145" y="695" as="sourcePoint" />
            <mxPoint x="-55" y="745" as="targetPoint" />
          </mxGeometry>
        </mxCell>
        <mxCell id="gepWx0UQFkuObHe4FOYn-79" value="" style="endArrow=none;html=1;rounded=0;exitX=1;exitY=1;exitDx=0;exitDy=0;entryX=0.5;entryY=0;entryDx=0;entryDy=0;" edge="1" parent="1" source="gepWx0UQFkuObHe4FOYn-119" target="gepWx0UQFkuObHe4FOYn-25">
          <mxGeometry relative="1" as="geometry">
            <mxPoint x="-120" y="694.9999999999998" as="sourcePoint" />
            <mxPoint x="-25" y="655" as="targetPoint" />
          </mxGeometry>
        </mxCell>
        <mxCell id="gepWx0UQFkuObHe4FOYn-80" value="" style="endArrow=none;html=1;rounded=0;exitX=0.5;exitY=1;exitDx=0;exitDy=0;entryX=0;entryY=0;entryDx=0;entryDy=0;" edge="1" parent="1" source="gepWx0UQFkuObHe4FOYn-7" target="gepWx0UQFkuObHe4FOYn-8">
          <mxGeometry relative="1" as="geometry">
            <mxPoint x="415" y="430" as="sourcePoint" />
            <mxPoint x="575" y="430" as="targetPoint" />
            <Array as="points" />
          </mxGeometry>
        </mxCell>
        <mxCell id="gepWx0UQFkuObHe4FOYn-86" value="Imagens" style="ellipse;shape=doubleEllipse;margin=3;whiteSpace=wrap;html=1;align=center;" vertex="1" parent="1">
          <mxGeometry x="670" y="735" width="100" height="40" as="geometry" />
        </mxCell>
        <mxCell id="gepWx0UQFkuObHe4FOYn-88" value="" style="endArrow=none;html=1;rounded=0;entryX=0.5;entryY=0;entryDx=0;entryDy=0;exitX=1;exitY=1;exitDx=0;exitDy=0;" edge="1" parent="1" source="gepWx0UQFkuObHe4FOYn-120" target="gepWx0UQFkuObHe4FOYn-86">
          <mxGeometry relative="1" as="geometry">
            <mxPoint x="540" y="694.9999999999998" as="sourcePoint" />
            <mxPoint x="700" y="680" as="targetPoint" />
          </mxGeometry>
        </mxCell>
        <mxCell id="gepWx0UQFkuObHe4FOYn-104" value="fotografia&lt;br&gt;desenho digital&lt;br&gt;escultura&lt;br&gt;pintura&lt;br&gt;desenho" style="shape=note;size=20;whiteSpace=wrap;html=1;" vertex="1" parent="1">
          <mxGeometry x="600" y="240" width="100" height="100" as="geometry" />
        </mxCell>
        <mxCell id="gepWx0UQFkuObHe4FOYn-105" style="edgeStyle=orthogonalEdgeStyle;rounded=0;orthogonalLoop=1;jettySize=auto;html=1;endArrow=none;endFill=0;" edge="1" parent="1" source="gepWx0UQFkuObHe4FOYn-106" target="gepWx0UQFkuObHe4FOYn-107">
          <mxGeometry relative="1" as="geometry" />
        </mxCell>
        <mxCell id="gepWx0UQFkuObHe4FOYn-106" value="estilo" style="whiteSpace=wrap;html=1;align=center;" vertex="1" parent="1">
          <mxGeometry x="-510" y="440" width="100" height="40" as="geometry" />
        </mxCell>
        <mxCell id="gepWx0UQFkuObHe4FOYn-107" value="estilo" style="ellipse;whiteSpace=wrap;html=1;align=center;" vertex="1" parent="1">
          <mxGeometry x="-510" y="520" width="100" height="40" as="geometry" />
        </mxCell>
        <mxCell id="gepWx0UQFkuObHe4FOYn-108" style="edgeStyle=orthogonalEdgeStyle;rounded=0;orthogonalLoop=1;jettySize=auto;html=1;entryX=0.5;entryY=0;entryDx=0;entryDy=0;endArrow=none;endFill=0;" edge="1" parent="1" source="gepWx0UQFkuObHe4FOYn-109" target="gepWx0UQFkuObHe4FOYn-106">
          <mxGeometry relative="1" as="geometry" />
        </mxCell>
        <mxCell id="gepWx0UQFkuObHe4FOYn-109" value="id_estilo" style="ellipse;whiteSpace=wrap;html=1;align=center;fontStyle=4;" vertex="1" parent="1">
          <mxGeometry x="-510" y="340" width="100" height="40" as="geometry" />
        </mxCell>
        <mxCell id="gepWx0UQFkuObHe4FOYn-110" style="edgeStyle=orthogonalEdgeStyle;rounded=0;orthogonalLoop=1;jettySize=auto;html=1;endArrow=none;endFill=0;" edge="1" parent="1" source="gepWx0UQFkuObHe4FOYn-111" target="gepWx0UQFkuObHe4FOYn-106">
          <mxGeometry relative="1" as="geometry" />
        </mxCell>
        <mxCell id="gepWx0UQFkuObHe4FOYn-111" value="possui" style="shape=rhombus;perimeter=rhombusPerimeter;whiteSpace=wrap;html=1;align=center;" vertex="1" parent="1">
          <mxGeometry x="-360" y="430" width="120" height="60" as="geometry" />
        </mxCell>
        <mxCell id="gepWx0UQFkuObHe4FOYn-112" value="neoclassico&lt;br&gt;classico&lt;br&gt;moderno&lt;br&gt;barroco&lt;br&gt;etc..." style="shape=note;size=20;whiteSpace=wrap;html=1;" vertex="1" parent="1">
          <mxGeometry x="-520" y="580" width="100" height="100" as="geometry" />
        </mxCell>
        <mxCell id="gepWx0UQFkuObHe4FOYn-115" value="Text" style="text;html=1;align=center;verticalAlign=middle;resizable=0;points=[];autosize=1;strokeColor=none;fillColor=none;" vertex="1" parent="1">
          <mxGeometry x="-800" y="710" width="50" height="30" as="geometry" />
        </mxCell>
        <mxCell id="gepWx0UQFkuObHe4FOYn-117" value="cria" style="shape=rhombus;double=0;perimeter=rhombusPerimeter;whiteSpace=wrap;html=1;align=center;" vertex="1" parent="1">
          <mxGeometry x="-230" y="470" width="120" height="60" as="geometry" />
        </mxCell>
        <mxCell id="gepWx0UQFkuObHe4FOYn-119" value="Exposição" style="shape=ext;margin=3;double=0;whiteSpace=wrap;html=1;align=center;sketch=0;" vertex="1" parent="1">
          <mxGeometry x="-220" y="655" width="100" height="40" as="geometry" />
        </mxCell>
        <mxCell id="gepWx0UQFkuObHe4FOYn-120" value="Obra" style="shape=ext;margin=3;double=0;whiteSpace=wrap;html=1;align=center;sketch=0;" vertex="1" parent="1">
          <mxGeometry x="430" y="660" width="100" height="40" as="geometry" />
        </mxCell>
        <mxCell id="gepWx0UQFkuObHe4FOYn-122" value="contém" style="shape=rhombus;double=0;perimeter=rhombusPerimeter;whiteSpace=wrap;html=1;align=center;sketch=0;" vertex="1" parent="1">
          <mxGeometry x="80" y="645" width="120" height="60" as="geometry" />
        </mxCell>
        <mxCell id="gepWx0UQFkuObHe4FOYn-125" value="Text" style="text;html=1;align=center;verticalAlign=middle;resizable=0;points=[];autosize=1;strokeColor=none;fillColor=none;" vertex="1" parent="1">
          <mxGeometry x="800" y="695" width="50" height="30" as="geometry" />
        </mxCell>
        <mxCell id="gepWx0UQFkuObHe4FOYn-128" value="M" style="text;html=1;align=center;verticalAlign=middle;resizable=0;points=[];autosize=1;strokeColor=none;fillColor=none;" vertex="1" parent="1">
          <mxGeometry x="-225" y="355" width="30" height="30" as="geometry" />
        </mxCell>
        <mxCell id="gepWx0UQFkuObHe4FOYn-130" value="N" style="text;html=1;align=center;verticalAlign=middle;resizable=0;points=[];autosize=1;strokeColor=none;fillColor=none;" vertex="1" parent="1">
          <mxGeometry x="-420" y="440" width="30" height="30" as="geometry" />
        </mxCell>
        <mxCell id="gepWx0UQFkuObHe4FOYn-133" value="1" style="text;html=1;align=center;verticalAlign=middle;resizable=0;points=[];autosize=1;strokeColor=none;fillColor=none;" vertex="1" parent="1">
          <mxGeometry x="-190" y="355" width="30" height="30" as="geometry" />
        </mxCell>
        <mxCell id="gepWx0UQFkuObHe4FOYn-134" value="N" style="text;html=1;align=center;verticalAlign=middle;resizable=0;points=[];autosize=1;strokeColor=none;fillColor=none;" vertex="1" parent="1">
          <mxGeometry x="-195" y="630" width="30" height="30" as="geometry" />
        </mxCell>
        <mxCell id="gepWx0UQFkuObHe4FOYn-138" value="N" style="text;html=1;align=center;verticalAlign=middle;resizable=0;points=[];autosize=1;strokeColor=none;fillColor=none;" vertex="1" parent="1">
          <mxGeometry x="-155" y="630" width="30" height="30" as="geometry" />
        </mxCell>
        <mxCell id="gepWx0UQFkuObHe4FOYn-139" value="M" style="text;html=1;align=center;verticalAlign=middle;resizable=0;points=[];autosize=1;strokeColor=none;fillColor=none;" vertex="1" parent="1">
          <mxGeometry x="395" y="355" width="30" height="30" as="geometry" />
        </mxCell>
        <mxCell id="gepWx0UQFkuObHe4FOYn-141" value="1" style="text;html=1;align=center;verticalAlign=middle;resizable=0;points=[];autosize=1;strokeColor=none;fillColor=none;" vertex="1" parent="1">
          <mxGeometry x="460" y="355" width="30" height="30" as="geometry" />
        </mxCell>
        <mxCell id="gepWx0UQFkuObHe4FOYn-142" value="N" style="text;html=1;align=center;verticalAlign=middle;resizable=0;points=[];autosize=1;strokeColor=none;fillColor=none;" vertex="1" parent="1">
          <mxGeometry x="460" y="640" width="30" height="30" as="geometry" />
        </mxCell>
        <mxCell id="gepWx0UQFkuObHe4FOYn-143" value="M" style="text;html=1;align=center;verticalAlign=middle;resizable=0;points=[];autosize=1;strokeColor=none;fillColor=none;" vertex="1" parent="1">
          <mxGeometry x="365" y="320" width="30" height="30" as="geometry" />
        </mxCell>
        <mxCell id="gepWx0UQFkuObHe4FOYn-144" value="N" style="text;html=1;align=center;verticalAlign=middle;resizable=0;points=[];autosize=1;strokeColor=none;fillColor=none;" vertex="1" parent="1">
          <mxGeometry x="-125" y="320" width="30" height="30" as="geometry" />
        </mxCell>
        <mxCell id="gepWx0UQFkuObHe4FOYn-145" value="1" style="text;html=1;align=center;verticalAlign=middle;resizable=0;points=[];autosize=1;strokeColor=none;fillColor=none;" vertex="1" parent="1">
          <mxGeometry x="640" y="495" width="30" height="30" as="geometry" />
        </mxCell>
        <mxCell id="gepWx0UQFkuObHe4FOYn-146" value="N" style="text;html=1;align=center;verticalAlign=middle;resizable=0;points=[];autosize=1;strokeColor=none;fillColor=none;" vertex="1" parent="1">
          <mxGeometry x="520" y="660" width="30" height="30" as="geometry" />
        </mxCell>
        <mxCell id="gepWx0UQFkuObHe4FOYn-147" value="1" style="text;html=1;align=center;verticalAlign=middle;resizable=0;points=[];autosize=1;strokeColor=none;fillColor=none;" vertex="1" parent="1">
          <mxGeometry x="-130" y="655" width="30" height="30" as="geometry" />
        </mxCell>
        <mxCell id="gepWx0UQFkuObHe4FOYn-148" value="N" style="text;html=1;align=center;verticalAlign=middle;resizable=0;points=[];autosize=1;strokeColor=none;fillColor=none;" vertex="1" parent="1">
          <mxGeometry x="410" y="655" width="30" height="30" as="geometry" />
        </mxCell>
        <mxCell id="gepWx0UQFkuObHe4FOYn-150" style="edgeStyle=orthogonalEdgeStyle;rounded=0;orthogonalLoop=1;jettySize=auto;html=1;entryX=0.4;entryY=0.05;entryDx=0;entryDy=0;entryPerimeter=0;endArrow=none;endFill=0;" edge="1" parent="1" source="gepWx0UQFkuObHe4FOYn-149" target="gepWx0UQFkuObHe4FOYn-8">
          <mxGeometry relative="1" as="geometry" />
        </mxCell>
        <mxCell id="gepWx0UQFkuObHe4FOYn-149" value="foto_perfil" style="ellipse;whiteSpace=wrap;html=1;align=center;sketch=0;fillColor=none;" vertex="1" parent="1">
          <mxGeometry x="60" y="30" width="100" height="40" as="geometry" />
        </mxCell>
        <mxCell id="gepWx0UQFkuObHe4FOYn-151" value="é_investidor" style="ellipse;whiteSpace=wrap;html=1;align=center;sketch=0;fillColor=none;" vertex="1" parent="1">
          <mxGeometry x="460" y="260" width="100" height="40" as="geometry" />
        </mxCell>
        <mxCell id="gepWx0UQFkuObHe4FOYn-154" value="Item" style="text;strokeColor=none;fillColor=none;spacingLeft=4;spacingRight=4;overflow=hidden;rotatable=0;points=[[0,0.5],[1,0.5]];portConstraint=eastwest;fontSize=12;" vertex="1" parent="1">
          <mxGeometry x="90" y="1090" width="40" height="30" as="geometry" />
        </mxCell>
        <mxCell id="gepWx0UQFkuObHe4FOYn-155" value="Item" style="text;strokeColor=none;fillColor=none;spacingLeft=4;spacingRight=4;overflow=hidden;rotatable=0;points=[[0,0.5],[1,0.5]];portConstraint=eastwest;fontSize=12;" vertex="1" parent="1">
          <mxGeometry x="110" y="-260" width="40" height="30" as="geometry" />
        </mxCell>
      </root>
    </mxGraphModel>
  </diagram>
</mxfile>
